<?xml version="1.0" encoding="utf-8"?>
<!-- Generator: Adobe Illustrator 21.1.0, SVG Export Plug-In . SVG Version: 6.00 Build 0)  -->
<svg version="1.1" id="gr_x5F_icon10_x5F_seoMatic" xmlns="http://www.w3.org/2000/svg" xmlns:xlink="http://www.w3.org/1999/xlink"
	 x="0px" y="0px" width="250px" height="250px" viewBox="0 0 250 250" style="enable-background:new 0 0 250 250;"
	 xml:space="preserve">
<style type="text/css">
	.st0{fill:#FFFFFF;}
</style>
<path class="st0" d="M88.8,168.5c-2.6-8,14.1-20.5,37.3-27.9s44-6.9,46.6,1.1c0.1,0.4,0.1,0.7,0.2,1.1c2.8-3.4,3.9-6.6,3-9.4
	c-2.9-9-26.4-9.6-52.5-1.2s-44.9,22.5-42,31.5c0.9,2.8,3.7,4.7,7.9,5.9C89.1,169.2,88.9,168.9,88.8,168.5z"/>
<path class="st0" d="M85.2,32.5h0.3l1.8,6.1c0.6-0.2,1.2-0.4,1.7-0.6c0.6-0.2,1.7-0.6,2.6-0.8l-2.4-6c3.1-2.3,3.7-6.6,1.5-9.6
	c-2.3-3.1-6.6-3.7-9.6-1.5c-3.1,2.3-3.7,6.6-1.5,9.6C81,31.4,83,32.5,85.2,32.5L85.2,32.5z"/>
<path class="st0" d="M103.1,77.9c17.6-6,35.8-10.5,54.2-13.3c-17.4-26.8-53.2-34.4-79.9-17c-17.8,11.6-27.8,32-26.1,53.1
	C67.8,91.6,85.2,83.9,103.1,77.9z"/>
<path class="st0" d="M248.8,100c-9.4-28.3-72.7-32.5-141-9.4s-116,64.6-106.5,92.9c7.8,23.1,51.3,30.1,104.3,19.4v-17.2
	c-32.8,6.4-58.5,3.6-62.5-8.3c-5.3-15.7,28.6-41.3,75.7-57.2s89.6-16,94.9-0.3c3.4,9.7-8.4,23.1-28.9,35.8l-16.1,9.6l10.1,12.7
	l1.2-0.6c3.8-1.9,7.5-3.8,11.1-5.8l0.3-0.2l0,0C232.3,148.8,255.8,121,248.8,100z M17.2,178.2c-3.2,1-6.6-0.7-7.6-3.9
	s0.7-6.6,3.9-7.6c3.2-1,6.6,0.7,7.6,3.9C22.1,173.7,20.3,177.2,17.2,178.2z M55.1,138.3c-3.2,1-6.6-0.7-7.6-3.9
	c-1-3.2,0.7-6.6,3.9-7.6c3.2-1,6.6,0.7,7.6,3.9C60.1,133.8,58.3,137.3,55.1,138.3C55.1,138.3,55.1,138.3,55.1,138.3z M116,114
	c-4.2,1.4-8.7-0.9-10.1-5.1c-1.4-4.2,0.9-8.7,5.1-10.1c4.2-1.4,8.7,0.9,10.1,5.1c0,0,0,0,0,0C122.5,108.1,120.2,112.6,116,114
	C116,114,116,114,116,114z M183.2,97.1c-3.2,1-6.6-0.7-7.6-3.9c-1-3.2,0.7-6.6,3.9-7.6c3.2-1,6.6,0.7,7.6,3.9
	C188.1,92.7,186.4,96.1,183.2,97.1C183.2,97.1,183.2,97.1,183.2,97.1z M222.2,99.3c-1-3.2,0.7-6.6,3.9-7.6c3.2-1,6.6,0.7,7.6,3.9
	c1,3.2-0.7,6.6-3.9,7.6C226.7,104.2,223.3,102.5,222.2,99.3C222.2,99.3,222.2,99.3,222.2,99.3z"/>
<path class="st0" d="M119.1,226.9L119.1,226.9c24.2,4,49,3.1,72.9-2.7l3.2-0.8l-52.7-74H140c-8.1,0-16.1,2.1-23.1,6.1l0,0
	L119.1,226.9z"/>
</svg>
